<svg xmlns="http://www.w3.org/2000/svg" xmlns:xlink="http://www.w3.org/1999/xlink" width="320" height="320" viewBox="0 0 320 320">
  <defs>
    <path id="badge007-a" d="M288,202.608078 L288,117.392725 C288,97.8202073 277.605333,79.7338977 260.7328,69.9476387 L187.2672,27.3404979 C170.394667,17.5531674 149.605333,17.5531674 132.7328,27.3404979 L59.2672,69.9476387 C42.3946667,79.7338977 32,97.8202073 32,117.392725 L32,202.608078 C32,222.180596 42.3946667,240.266906 59.2672,250.052093 L132.7328,292.660306 C149.605333,302.446565 170.394667,302.446565 187.2672,292.660306 L260.7328,250.052093 C277.605333,240.266906 288,222.180596 288,202.608078"/>
  </defs>
  <g fill="none" fill-rule="evenodd">
    <mask id="badge007-b" fill="#fff">
      <use xlink:href="#badge007-a"/>
    </mask>
    <use fill="#00401F" xlink:href="#badge007-a"/>
    <g mask="url(#badge007-b)">
      <g transform="translate(66 65)">
        <path fill="#6AB661" d="M90.4250316,199.714679 C87.7010461,200.255046 84.1586723,197.217431 84.3770316,194.923853 C84.455017,194.107339 84.9926578,193.547706 85.1477112,193.383486 C88.1451044,190.198165 90.5947646,183.188073 93.0655267,176.117431 C95.0206675,170.523853 95.569318,165.924771 95.8546529,163.411009 C96.4510121,158.159633 96.7620364,149.115596 93.3756335,137.998165 C95.3665558,137.56422 97.3565607,137.131193 99.347483,136.697248 C100.787002,141.026606 102.369648,147.07156 102.983439,154.422936 C103.769716,163.843119 102.56507,170.608257 101.233813,178.083486 C101.233813,178.083486 99.197017,189.521101 92.9104733,197.966972 C92.6306432,198.343119 91.7856481,199.444954 90.4250316,199.714679"/>
        <path fill="#38A100" d="M181.202448,72.146882 C183.259428,68.7477994 187.420181,61.8780747 186.087088,53.2395425 C184.367739,42.0909187 174.124122,30.9661481 162.647418,31.3799095 C157.050816,31.5817444 152.784554,34.4679829 150.539491,36.3055976 C152.041399,34.0698178 154.601156,29.5037627 154.091957,23.9166068 C153.12402,13.2927536 141.708787,6.26890034 132.458797,4.746882 C122.130773,3.04779943 114.228554,8.26431319 112.131205,9.64871686 C107.066739,12.993671 104.383122,16.9909187 102.218797,20.2881664 C96.323098,29.2689003 94.433098,38.5918361 93.8972922,45.3716526 C94,39 96.0331757,28.3322031 91.239365,17.4322031 C90.2099572,15.0918361 89.0181562,12.44046 86.5785883,9.64963429 C79.7259621,1.8147719 68.0620931,-1.35220057 57.8634329,0.527615941 C46.0500155,2.70559759 32.0566757,12.3780747 32.4621999,24.3312857 C32.6567048,30.0487169 36.0834766,34.5166068 38.5991951,37.1092673 C35.9531951,35.14046 30.8125786,31.9973407 24.4434621,32.3679829 C11.3474135,33.1294508 0.446884405,48.3028453 2.11944266,61.3450471 C3.21307373,69.8799095 9.62989897,75.2652306 13.1548407,78.2239462 C23.9425203,87.2780747 36.5073504,87.6147719 40.6882873,87.5450471 C39.0450883,87.3744049 16.6430834,85.3854141 5.44712712,100.900093 C4.08192324,102.791836 0.425782463,108.349634 0.0349378028,116.110185 C-0.588028217,128.50101 7.17381644,143.147799 19.0055834,145.298258 C23.9241708,146.191836 28.375763,144.713854 31.4438019,143.209267 C29.2014912,145.488166 26.1343698,149.382662 25.5077339,154.603763 C24.0342679,166.912937 37.0055397,179.354221 50.110763,181.67257 C60.752564,183.556056 69.3291271,178.089084 73.3641854,175.527616 C91.2751465,164.160643 95.0028504,143.248717 95.7533456,138.292754 C96.7414669,144.84046 98.9149669,154.937708 103.685841,160.748717 C104.782224,162.084497 109.398962,167.313854 115.019418,173.086332 C118.599409,175.286332 127.601681,180.817524 138.279263,178.630368 C150.596375,176.107432 162.098768,164.792754 161.433598,152.63679 C161.123491,146.943212 158.229773,142.625781 156.409501,140.357891 C162.249234,144.237708 166.720093,144.141377 168.696336,143.91202 C181.480443,142.428533 189.316603,123.853304 188.322977,113.043212 C188.28536,112.634038 188.248661,111.991836 188.112875,111.148717 C186.590782,101.726699 178.433506,95.9211939 176.366433,94.559726 C165.341127,87.2955058 152.675375,91.2055976 150.934006,91.7744049 C155,90 172.132282,87.1266985 181.202448,72.146882 Z"/>
        <path fill="#FEFEFE" fill-opacity=".2" d="M130.011816,97.1917431 C117.064398,98.7110092 106.364796,96.7220183 99.6231845,94.8844037 C109.037403,89.0733945 122.30135,79.266055 134.316612,63.7201835 C141.996801,53.7834862 147.113563,44.1587156 150.540335,36.3055046 C152.041325,34.0697248 154.601083,29.5036697 154.091883,23.9165138 C153.123947,13.2926606 141.708714,6.26880734 132.458723,4.74678899 C122.130699,3.04770642 114.228481,8.26422018 112.132049,9.64862385 C107.066665,12.993578 104.383049,16.9908257 102.218723,20.2880734 C101.621447,21.1972477 99.2002282,24.8880734 97.1927913,30.233945 C96.993699,30.7651376 96.4578932,32.2311927 95.8991505,34.1844037 C95.4294029,35.8211009 95.030301,37.1770642 94.8110243,38.6880734 C94.6925362,39.5033724 94,43 94,44 C94,45 93.3411263,49.4517613 94,56 C94.4929258,60.8989602 98.3855097,87.7073394 98.939665,92.9183486 C87.8354563,85.5752294 75.1733738,75.9550459 62.3039417,63.4981651 C52.8796311,54.3770642 45.0489757,45.3834862 38.5991214,37.1091743 C35.9531214,35.140367 30.8125049,31.9972477 24.4433883,32.3678899 C11.3473398,33.1293578 0.44681068,48.3027523 2.11936893,61.3449541 C3.21391748,69.8798165 9.62982524,75.2651376 13.1538495,78.2238532 C23.9424466,87.2779817 36.5072767,87.6146789 40.6882136,87.5449541 C59.8221699,89.9899083 78.9579612,92.4348624 98.092835,94.8807339 C91.477835,103.919266 80.4286748,116.684404 63.5746456,127.772477 C51.6272767,135.633028 40.2863592,140.33211 31.4437282,143.209174 C29.2014175,145.488073 26.1333786,149.382569 25.5076602,154.60367 C24.0341942,166.912844 37.005466,179.354128 50.1106893,181.672477 C60.7524903,183.555963 69.3290534,178.088991 73.3641117,175.527523 C91.2750728,164.16055 95.0027767,143.248624 95.7532718,138.292661 C96.9542476,124.180734 98.1552233,110.069725 99.3552816,95.9577982 C118.373636,110.757798 137.391073,125.557798 156.409427,140.357798 C162.24916,144.237615 166.720019,144.141284 168.696262,143.911927 C181.480369,142.42844 189.316529,123.853211 188.322903,113.043119 C188.285286,112.633945 188.248587,111.991743 188.112801,111.148624 C186.590709,101.726606 178.432515,95.9211009 176.366359,94.559633 C165.341053,87.2954128 152.675301,91.2055046 150.933932,91.7743119 C145.714413,93.9137615 138.622325,96.1816514 130.011816,97.1917431 Z"/>
      </g>
    </g>
    <g mask="url(#badge007-b)">
      <g transform="translate(115 115)">
        <path fill="#FEFEFE" d="M15.7281067,19.9789962 C12.05344,21.3364106 10.24224,22.125308 6.70730667,23.9234829 C4.07904,18.7759544 2.76597333,16.2016578 0.137706667,11.0541293 C1.47850667,10.3727605 2.15264,10.0448517 3.51264,9.41777947 C5.52224,13.7529886 6.52597333,15.9195285 8.53557333,20.2558023 C11.03264,19.1027985 12.2987733,18.5779316 14.8587733,17.6325323 C15.2065067,18.5715437 15.3803733,19.0410494 15.7281067,19.9789962 Z M21.3166933,12.5161977 C21.8062933,14.3026616 23.25056,15.1458555 25.2718933,14.6752852 C27.28256,14.2057795 28.19456,12.8121673 27.8404267,10.9937643 C27.14816,7.44532319 26.8014933,5.67057034 26.1092267,2.12212928 C27.5524267,1.84212928 28.2756267,1.71437262 29.7262933,1.4886692 C30.3044267,5.17870722 30.5934933,7.02479087 31.1716267,10.7158935 C31.6644267,13.8608365 29.5908267,16.3297338 25.8628267,17.1995437 C22.1252267,18.0714829 19.1438933,16.78327 18.18816,13.7458555 C17.0670933,10.1825095 16.50496,8.40030418 15.3838933,4.83695817 C16.79616,4.39406844 17.5044267,4.18646388 18.9284267,3.79787072 C19.8830933,7.28456274 20.36096,9.02844106 21.3166933,12.5161977 Z M36.01984,7.96082129 C35.5633067,3.32857795 38.49344,0.136790875 43.57184,0.0643954373 C47.78624,0.00371102662 50.8667733,2.43321673 50.92544,5.67610646 C49.5771733,5.59093536 48.90304,5.56006084 47.5537067,5.52386312 C47.28064,3.74378707 45.69024,2.53648669 43.6081067,2.56629658 C40.9083733,2.60462357 39.28704,4.64021293 39.46944,7.67762738 C39.6561067,10.7554981 41.30944,12.5398327 43.7617067,12.5046996 C45.6625067,12.4780837 47.05024,11.4677414 47.4481067,9.76644867 C48.73664,9.80158175 49.37984,9.830327 50.66624,9.91230418 C50.0891733,13.1051559 47.43744,14.9544335 43.7873067,15.0066008 C39.45664,15.0694144 36.4785067,12.6026464 36.01984,7.96082129 Z M55.0385067,15.3456882 C55.7275733,9.60941445 56.0721067,6.74021293 56.7601067,1.0050038 C58.2161067,1.17853992 58.9425067,1.27968061 60.3931733,1.50751331 C59.98144,4.10949049 59.7755733,5.41047909 59.3649067,8.01352091 C59.40544,8.01990875 59.42464,8.02310266 59.4651733,8.02842586 C62.30784,5.81184791 63.8129067,4.7546616 66.9745067,2.77230418 C68.5723733,3.13641065 69.3681067,3.33443346 70.9521067,3.76561217 C67.7595733,5.55314068 66.2353067,6.51557414 63.3435733,8.54477567 C65.25184,12.2113916 66.08704,14.070251 67.52384,17.8039392 C66.0721067,17.4025703 65.3425067,17.2183878 63.8779733,16.8830266 C62.6843733,14.132 62.0209067,12.7639392 60.5617067,10.0576274 C59.8587733,10.5942053 59.51104,10.8656882 58.8283733,11.4150418 C58.5521067,13.1589202 58.4145067,14.0308593 58.13824,15.7747376 C56.9009067,15.5799087 56.2811733,15.4947376 55.0385067,15.3456882 Z M75.5291733,20.4552091 C76.31104,18.4430418 76.7035733,17.4380228 77.48544,15.4258555 C76.70464,11.2396958 76.1979733,9.13596958 74.9521067,4.94342205 C76.4891733,5.43102662 77.2539733,5.69079848 78.7739733,6.24228137 C79.4225067,9.10190114 79.6955733,10.531711 80.14144,13.3796198 C80.1713067,13.3923954 80.18624,13.3987833 80.2161067,13.4104943 C82.5425067,11.6985551 83.74784,10.8745247 86.2395733,9.30311787 C87.6987733,9.97277567 88.4241067,10.3230418 89.86304,11.0544487 C85.9835733,13.14327 84.1297067,14.2813688 80.61824,16.7076806 C79.7595733,18.6889734 79.3297067,19.6790875 78.4721067,21.6603802 C77.3019733,21.1546768 76.7121067,20.9140684 75.5291733,20.4552091 Z"/>
        <polygon fill="#FFF" fill-rule="nonzero" points="27.778 93 55.068 40.397 55.068 40.134 22.813 40.134 22.813 29.587 68.164 29.587 68.164 40.266 41.709 93"/>
      </g>
    </g>
  </g>
</svg>
