<svg xmlns="http://www.w3.org/2000/svg" xmlns:xlink="http://www.w3.org/1999/xlink" width="320" height="320" viewBox="0 0 320 320">
  <defs>
    <path id="badge005-a" d="M288,202.608078 L288,117.392725 C288,97.8202073 277.605333,79.7338977 260.7328,69.9476387 L187.2672,27.3404979 C170.394667,17.5531674 149.605333,17.5531674 132.7328,27.3404979 L59.2682667,69.9476387 C42.3946667,79.7338977 32,97.8202073 32,117.392725 L32,202.608078 C32,222.180596 42.3946667,240.266906 59.2682667,250.052093 L132.7328,292.660306 C149.605333,302.446565 170.394667,302.446565 187.2672,292.660306 L260.7328,250.052093 C277.605333,240.266906 288,222.180596 288,202.608078"/>
    <polygon id="badge005-c" points="0 0 26 0 26 25 0 25"/>
    <polygon id="badge005-e" points="0 0 26 0 26 25 0 25"/>
    <polygon id="badge005-g" points="0 0 26 0 26 25 0 25"/>
    <polygon id="badge005-i" points="0 0 26 0 26 25 0 25"/>
    <polygon id="badge005-k" points="0 0 26 0 26 25 0 25"/>
  </defs>
  <g fill="none" fill-rule="evenodd">
    <mask id="badge005-b" fill="#fff">
      <use xlink:href="#badge005-a"/>
    </mask>
    <use fill="#3B7258" xlink:href="#badge005-a"/>
    <g mask="url(#badge005-b)">
      <g transform="translate(51 37)">
        <path fill="#D5CEB2" d="M46,191.329705 C40.6943454,192.272767 34.9316589,193.569953 28.8389648,195.359101 C17.4112537,198.715114 7.77081801,202.934647 0,207 C4.52818983,199.836328 9.05637966,192.672656 13.5852078,185.508983 C9.2153195,182.076697 4.84543121,178.643865 0.476819538,175.211579 C6.34291265,172.18245 13.9330882,168.872745 23.1190453,166.257125 C31.7777562,163.791327 39.6002775,162.583489 46,162 L46,191.329705 Z"/>
        <path fill="#010202" fill-opacity=".2" d="M24,181 C27.9020592,179.470266 32.0306281,177.24472 36.3819,175.844086 C39.6792986,174.782743 42.8891388,173.839472 46,173 C45.9822345,179.000216 45.9644691,184.999784 45.9473381,191 C38.6317702,187.419592 31.3155679,184.579759 24,181 Z"/>
        <path fill="#D5CEB2" d="M170,190.981114 C175.536335,191.94512 181.548907,193.271117 187.907167,195.100001 C199.831735,198.530551 209.890654,202.8438 218,207 C213.274932,199.677224 208.549199,192.35389 203.824131,185.031114 C208.383348,181.522597 212.943232,178.013523 217.502449,174.505006 C211.380642,171.408601 203.461125,168.025388 193.875779,165.351675 C184.840602,162.831112 176.677971,161.596448 170,161 L170,190.981114 Z"/>
        <path fill="#010202" fill-opacity=".2" d="M192,181 C188.097941,179.470915 183.968737,177.24472 179.6181,175.844734 C176.320701,174.782743 173.110861,173.839472 170,173 C170.017131,179.000216 170.035531,184.999784 170.052662,191 C177.36823,187.420241 184.684432,184.579759 192,181 Z"/>
        <g transform="translate(38)">
          <path fill="#E82031" d="M0,132.225642 C0,174.775927 31.8603209,208 71.1709259,208 L71.1709259,208 C110.472526,208 148.49539,174.425633 142.341852,132.225642 L142.341852,132.225642 C137.623138,99.8368863 101.929613,88.8819541 85.231011,58.0919782 L85.231011,58.0919782 C66.4672211,23.5056497 68.8866123,0 68.8866123,0 L68.8866123,0 C68.8866123,0 0,89.6723619 0,132.225642 L0,132.225642 Z"/>
          <path fill="#000" fill-opacity=".2" d="M71.1709259,208 C91.0569753,208 108.310213,200.931954 122.930638,186.795861 C100.976879,193.59862 85.3333333,197 76,197 C44.8185853,197 19.3935536,173.675289 14,153 C2,107 68.8866123,1.42108547e-14 68.8866123,1.42108547e-14 C68.8866123,1.42108547e-14 4.26325641e-14,89.6723619 4.26325641e-14,132.225642 C4.26325641e-14,174.775927 31.8603209,208 71.1709259,208 Z"/>
        </g>
        <path fill="#FEFEFE" d="M90.2474977,135 C79.810737,135 72.3030027,128.762712 72,119.915254 L81.3930846,119.915254 C81.9654231,124.050847 85.6014559,126.898305 90.3148317,126.898305 C95.6342129,126.898305 99.3039126,123.169492 99.3039126,117.847458 C99.3039126,112.423729 95.6342129,108.627119 90.3821656,108.627119 C86.7124659,108.627119 83.5477707,110.322034 81.8644222,113.135593 L72.7743403,113.135593 L75.1646952,85 L106.070974,85 L106.070974,93.1355932 L83.1437671,93.1355932 L82.0327571,106.525424 L82.2347589,106.525424 C84.2211101,103.237288 88.0928116,101.169492 93.0418562,101.169492 C102.33394,101.169492 109,108.050847 109,117.576271 C109,127.949153 101.391265,135 90.2474977,135 Z M117.440895,86.6289268 L117.440895,89.8716003 L119.872661,89.8716003 L119.872661,92.7603779 L117.440895,92.7603779 L117.440895,99.4962868 C117.440895,100.572606 117.931867,101.085617 118.988227,101.085617 C119.308129,101.085617 119.63915,101.058184 119.859831,101.018862 L119.859831,103.841799 C119.491174,103.934159 118.877887,104 118.152548,104 C115.057884,104 113.854404,102.897162 113.854404,100.152869 L113.854404,92.7603779 L112,92.7603779 L112,89.8716003 L113.854404,89.8716003 L113.854404,86.6289268 L117.440895,86.6289268 Z M121.669243,85 L125.194149,85 L125.194149,92.3796884 L125.26771,92.3796884 C125.967388,90.6074658 127.404379,89.608876 129.406759,89.608876 C132.329497,89.608876 134,91.6307461 134,94.8880509 L134,103.947601 L130.414364,103.947601 L130.414364,95.7010054 C130.414364,93.8894611 129.578685,92.7866229 127.944962,92.7866229 C126.249654,92.7866229 125.254879,94.060465 125.254879,95.9122456 L125.254879,103.947601 L121.669243,103.947601 L121.669243,85 Z"/>
        <path fill="#FFF8D8" d="M192,181 C173.267265,175.015954 144.222121,167.978924 108.123411,167.962894 C71.90129,167.946864 42.7611131,175.006557 24,181 L24,150.122411 C43.5471159,144.339565 72.7486683,137.925481 108.619695,138.000655 C143.879606,138.073617 172.620512,144.389312 192,150.122411 L192,181 Z"/>
        <path fill="#6C6C6C" d="M62.193788,159.094086 L63.7408122,159.094086 C65.702807,159.094086 66.7628051,157.843217 66.7628051,155.46538 C66.7628051,153.163161 65.6732902,151.897714 63.7408122,151.897714 L62.193788,151.897714 L62.193788,159.094086 Z M64.0021221,150 C67.1482589,150 69,151.966043 69,155.458092 C69,158.94923 67.1482589,161 64.0021221,161 L60,161 L60,150 L64.0021221,150 Z M75.4338456,155.503522 C75.4338456,157.728706 76.626685,159.135847 78.5004722,159.135847 C80.364815,159.135847 81.5576543,157.728706 81.5576543,155.503522 C81.5576543,153.271294 80.364815,151.856228 78.5004722,151.856228 C76.6342406,151.856228 75.4338456,153.271294 75.4338456,155.503522 Z M84,155.503522 C84,158.885767 81.8740448,161 78.5004722,161 C75.1174551,161 73,158.885767 73,155.503522 C73,152.114233 75.1174551,150 78.5004722,150 C81.8740448,150 84,152.114233 84,155.503522 Z M89,161 L89,150 L90.8540018,150 L95.8144239,157.165397 L95.8733509,157.165397 L95.8733509,150 L98,150 L98,161 L96.1600704,161 L91.1926121,153.796339 L91.1266491,153.796339 L91.1266491,161 L89,161 Z M104.928364,156.608746 L107.981607,156.608746 L106.483059,152.104522 L106.426912,152.104522 L104.928364,156.608746 Z M108.508228,158.33245 L104.401742,158.33245 L103.511133,161 L101,161 L105.058083,150 L107.933204,150 L112,161 L109.399806,161 L108.508228,158.33245 Z M117.300851,161 L117.300851,151.897714 L114,151.897714 L114,150 L123,150 L123,151.897714 L119.69158,151.897714 L119.69158,161 L117.300851,161 Z M126,161 L126,150 L129,150 L129,161 L126,161 Z M136.433846,155.503522 C136.433846,157.728706 137.627629,159.135847 139.499528,159.135847 C141.364815,159.135847 142.557654,157.728706 142.557654,155.503522 C142.557654,153.271294 141.364815,151.856228 139.499528,151.856228 C137.634241,151.856228 136.433846,153.271294 136.433846,155.503522 Z M145,155.503522 C145,158.885767 142.874045,161 139.499528,161 C136.117455,161 134,158.885767 134,155.503522 C134,152.114233 136.117455,150 139.499528,150 C142.874045,150 145,152.114233 145,155.503522 Z M149,161 L149,150 L150.854002,150 L155.814424,157.165397 L155.872471,157.165397 L155.872471,150 L158,150 L158,161 L156.16095,161 L151.192612,153.796339 L151.126649,153.796339 L151.126649,161 L149,161 Z"/>
      </g>
    </g>
    <g mask="url(#badge005-b)">
      <g transform="translate(88 237)">
        <mask id="badge005-d" fill="#fff">
          <use xlink:href="#badge005-c"/>
        </mask>
        <path fill="#F8CF20" d="M12.391924,0.5127677 C12.726336,-0.170922567 13.273754,-0.170922567 13.6081661,0.5127677 L16.6154513,6.66157867 C16.9498634,7.34502441 17.835086,7.99423673 18.5829089,8.10378367 L25.3074992,9.08995064 C26.0550797,9.19949758 26.2242244,9.72473603 25.6831069,10.2568212 L20.8174115,15.0428976 C20.2760517,15.5752272 19.9380047,16.6254596 20.0657114,17.3768831 L21.2143441,24.1350489 C21.342293,24.8864724 20.8993182,25.2109563 20.2307364,24.8561514 L14.2159237,21.6655968 C13.5473419,21.3107919 12.4527482,21.3107919 11.7839241,21.6655968 L5.76935365,24.8561514 C5.10052954,25.2109563 4.65803938,24.8864724 4.78550369,24.1350489 L5.93437873,17.3768831 C6.06208536,16.6254596 5.72379606,15.5752272 5.18267859,15.0428976 L0.316983172,10.2568212 C-0.224376634,9.72473603 -0.0549896578,9.19949758 0.692833244,9.08995064 L7.41718117,8.10378367 C8.16500407,7.99423673 9.05022671,7.34502441 9.38463877,6.66157867 L12.391924,0.5127677 Z" mask="url(#badge005-d)"/>
        <path fill="#231F20" fill-opacity=".1" d="M12.9887046,-4.4408921e-15 C13.0304167,0.000244494347 13.0929848,0.00562336999 13.1625858,0.0320287595 C13.2746264,0.0745707759 13.3401046,0.147185597 13.4118882,0.22835772 C13.4647558,0.288014341 13.5362969,0.381411182 13.5971674,0.512704646 C14.6004399,2.56205627 15.6034699,4.61140788 16.6067424,6.6607595 C16.7039897,6.85928891 16.9026071,7.14265786 17.2139926,7.41918097 C17.3696854,7.55756477 17.51204,7.65242858 17.6044371,7.70939576 C16.0739433,9.55777302 14.5432071,11.4061503 13.0127133,13.2545276 C17.3340361,12.0076064 21.6556014,10.7606852 25.9771667,9.51376404 C25.9890498,9.55263864 26.002873,9.61229526 25.9994778,9.68491008 C25.9955976,9.7665712 25.9718315,9.82427186 25.9473377,9.88466197 C25.901503,9.99590689 25.8440276,10.0709667 25.8083783,10.1169316 C25.761331,10.1775662 25.7157387,10.2235311 25.681302,10.2555599 C24.0581686,11.8508855 22.4347927,13.4459666 20.8119019,15.0412922 C20.602614,15.4026549 20.3938111,15.764262 20.1847656,16.1258692 C17.7923839,15.1760086 15.3997597,14.2263926 13.007378,13.276532 C15.6769511,17.1534789 18.3465241,21.0304258 21.0160971,24.9073726 C20.9877231,24.9271767 20.9462536,24.9526041 20.8914458,24.9719191 C20.7495763,25.0220405 20.6237125,24.9941681 20.5237975,24.9719191 C20.4505589,24.9557825 20.343126,24.9232648 20.2247801,24.8530949 C18.2182352,23.789789 16.2119327,22.7262386 14.2056302,21.6629327 C13.5362969,21.3081714 12.4408698,21.3081714 11.7715365,21.6629327 C12.1745916,18.8673843 12.5776466,16.0718359 12.9807017,13.276532 C10.3072485,17.1534789 7.63452286,21.0304258 4.96106967,24.9073726 C4.93487836,24.8870796 4.8994716,24.8557843 4.8652774,24.8107974 C4.78064068,24.6995524 4.76463488,24.5834176 4.75153923,24.4809745 C4.74183875,24.4024918 4.73577594,24.2800001 4.76803005,24.1320811 L5.91753732,17.3747463 C5.87582524,16.9583724 5.83411316,16.542243 5.79240109,16.1258692 C8.1852678,15.1694073 10.5786195,14.2131899 12.9717288,13.257217 C8.64773834,12.0093178 4.32399043,10.7616632 -1.79870008e-13,9.51376404 C0.00994299538,9.48051281 0.0278888895,9.4333254 0.0606280206,9.38344855 C0.14793237,9.25117711 0.27719131,9.19909982 0.376378752,9.15875825 C0.442827062,9.13186387 0.543227064,9.09959062 0.67200098,9.08883287 C2.91499523,8.76023246 5.15823199,8.43163206 7.40146875,8.10303166 C7.78124267,7.93433056 8.16125911,7.76562946 8.54103303,7.59717285 C10.025207,9.47782337 11.5091384,11.3584739 12.9935549,13.2388799 C12.9918573,8.82600144 12.9901597,4.41287847 12.9887046,-4.4408921e-15"/>
        <g transform="translate(59 21)">
          <mask id="badge005-f" fill="#fff">
            <use xlink:href="#badge005-e"/>
          </mask>
          <path fill="#F8CF20" d="M12.391924,0.5127677 C12.726336,-0.170922567 13.273754,-0.170922567 13.6081661,0.5127677 L16.6154513,6.66157867 C16.9498634,7.34502441 17.835086,7.99423673 18.5829089,8.10378367 L25.3074992,9.08995064 C26.0550797,9.19949758 26.2242244,9.72473603 25.6831069,10.2568212 L20.8174115,15.0428976 C20.2760517,15.5752272 19.9380047,16.6254596 20.0657114,17.3768831 L21.2143441,24.1350489 C21.342293,24.8864724 20.8993182,25.2109563 20.2307364,24.8561514 L14.2159237,21.6655968 C13.5473419,21.3107919 12.4527482,21.3107919 11.7839241,21.6655968 L5.76935365,24.8561514 C5.10052954,25.2109563 4.65803938,24.8864724 4.78550369,24.1350489 L5.93437873,17.3768831 C6.06208536,16.6254596 5.72379606,15.5752272 5.18267859,15.0428976 L0.316983172,10.2568212 C-0.224376634,9.72473603 -0.0549896578,9.19949758 0.692833244,9.08995064 L7.41718117,8.10378367 C8.16500407,7.99423673 9.05022671,7.34502441 9.38463877,6.66157867 L12.391924,0.5127677 Z" mask="url(#badge005-f)"/>
          <path fill="#231F20" fill-opacity=".1" d="M12.9887046,-4.4408921e-15 C13.0304167,0.000244494347 13.0929848,0.00562336999 13.1625858,0.0320287595 C13.2746264,0.0745707759 13.3401046,0.147185597 13.4118882,0.22835772 C13.4647558,0.288014341 13.5362969,0.381411182 13.5971674,0.512704646 C14.6004399,2.56205627 15.6034699,4.61140788 16.6067424,6.6607595 C16.7039897,6.85928891 16.9026071,7.14265786 17.2139926,7.41918097 C17.3696854,7.55756477 17.51204,7.65242858 17.6044371,7.70939576 C16.0739433,9.55777302 14.5432071,11.4061503 13.0127133,13.2545276 C17.3340361,12.0076064 21.6556014,10.7606852 25.9771667,9.51376404 C25.9890498,9.55263864 26.002873,9.61229526 25.9994778,9.68491008 C25.9955976,9.7665712 25.9718315,9.82427186 25.9473377,9.88466197 C25.901503,9.99590689 25.8440276,10.0709667 25.8083783,10.1169316 C25.761331,10.1775662 25.7157387,10.2235311 25.681302,10.2555599 C24.0581686,11.8508855 22.4347927,13.4459666 20.8119019,15.0412922 C20.602614,15.4026549 20.3938111,15.764262 20.1847656,16.1258692 C17.7923839,15.1760086 15.3997597,14.2263926 13.007378,13.276532 C15.6769511,17.1534789 18.3465241,21.0304258 21.0160971,24.9073726 C20.9877231,24.9271767 20.9462536,24.9526041 20.8914458,24.9719191 C20.7495763,25.0220405 20.6237125,24.9941681 20.5237975,24.9719191 C20.4505589,24.9557825 20.343126,24.9232648 20.2247801,24.8530949 C18.2182352,23.789789 16.2119327,22.7262386 14.2056302,21.6629327 C13.5362969,21.3081714 12.4408698,21.3081714 11.7715365,21.6629327 C12.1745916,18.8673843 12.5776466,16.0718359 12.9807017,13.276532 C10.3072485,17.1534789 7.63452286,21.0304258 4.96106967,24.9073726 C4.93487836,24.8870796 4.8994716,24.8557843 4.8652774,24.8107974 C4.78064068,24.6995524 4.76463488,24.5834176 4.75153923,24.4809745 C4.74183875,24.4024918 4.73577594,24.2800001 4.76803005,24.1320811 L5.91753732,17.3747463 C5.87582524,16.9583724 5.83411316,16.542243 5.79240109,16.1258692 C8.1852678,15.1694073 10.5786195,14.2131899 12.9717288,13.257217 C8.64773834,12.0093178 4.32399043,10.7616632 -1.79870008e-13,9.51376404 C0.00994299538,9.48051281 0.0278888895,9.4333254 0.0606280206,9.38344855 C0.14793237,9.25117711 0.27719131,9.19909982 0.376378752,9.15875825 C0.442827062,9.13186387 0.543227064,9.09959062 0.67200098,9.08883287 C2.91499523,8.76023246 5.15823199,8.43163206 7.40146875,8.10303166 C7.78124267,7.93433056 8.16125911,7.76562946 8.54103303,7.59717285 C10.025207,9.47782337 11.5091384,11.3584739 12.9935549,13.2388799 C12.9918573,8.82600144 12.9901597,4.41287847 12.9887046,-4.4408921e-15"/>
        </g>
        <g transform="translate(29 13)">
          <mask id="badge005-h" fill="#fff">
            <use xlink:href="#badge005-g"/>
          </mask>
          <path fill="#F8CF20" d="M12.391924,0.5127677 C12.726336,-0.170922567 13.273754,-0.170922567 13.6081661,0.5127677 L16.6154513,6.66157867 C16.9498634,7.34502441 17.835086,7.99423673 18.5829089,8.10378367 L25.3074992,9.08995064 C26.0550797,9.19949758 26.2242244,9.72473603 25.6831069,10.2568212 L20.8174115,15.0428976 C20.2760517,15.5752272 19.9380047,16.6254596 20.0657114,17.3768831 L21.2143441,24.1350489 C21.342293,24.8864724 20.8993182,25.2109563 20.2307364,24.8561514 L14.2159237,21.6655968 C13.5473419,21.3107919 12.4527482,21.3107919 11.7839241,21.6655968 L5.76935365,24.8561514 C5.10052954,25.2109563 4.65803938,24.8864724 4.78550369,24.1350489 L5.93437873,17.3768831 C6.06208536,16.6254596 5.72379606,15.5752272 5.18267859,15.0428976 L0.316983172,10.2568212 C-0.224376634,9.72473603 -0.0549896578,9.19949758 0.692833244,9.08995064 L7.41718117,8.10378367 C8.16500407,7.99423673 9.05022671,7.34502441 9.38463877,6.66157867 L12.391924,0.5127677 Z" mask="url(#badge005-h)"/>
          <path fill="#231F20" fill-opacity=".1" d="M12.9887046,-4.4408921e-15 C13.0304167,0.000244494347 13.0929848,0.00562336999 13.1625858,0.0320287595 C13.2746264,0.0745707759 13.3401046,0.147185597 13.4118882,0.22835772 C13.4647558,0.288014341 13.5362969,0.381411182 13.5971674,0.512704646 C14.6004399,2.56205627 15.6034699,4.61140788 16.6067424,6.6607595 C16.7039897,6.85928891 16.9026071,7.14265786 17.2139926,7.41918097 C17.3696854,7.55756477 17.51204,7.65242858 17.6044371,7.70939576 C16.0739433,9.55777302 14.5432071,11.4061503 13.0127133,13.2545276 C17.3340361,12.0076064 21.6556014,10.7606852 25.9771667,9.51376404 C25.9890498,9.55263864 26.002873,9.61229526 25.9994778,9.68491008 C25.9955976,9.7665712 25.9718315,9.82427186 25.9473377,9.88466197 C25.901503,9.99590689 25.8440276,10.0709667 25.8083783,10.1169316 C25.761331,10.1775662 25.7157387,10.2235311 25.681302,10.2555599 C24.0581686,11.8508855 22.4347927,13.4459666 20.8119019,15.0412922 C20.602614,15.4026549 20.3938111,15.764262 20.1847656,16.1258692 C17.7923839,15.1760086 15.3997597,14.2263926 13.007378,13.276532 C15.6769511,17.1534789 18.3465241,21.0304258 21.0160971,24.9073726 C20.9877231,24.9271767 20.9462536,24.9526041 20.8914458,24.9719191 C20.7495763,25.0220405 20.6237125,24.9941681 20.5237975,24.9719191 C20.4505589,24.9557825 20.343126,24.9232648 20.2247801,24.8530949 C18.2182352,23.789789 16.2119327,22.7262386 14.2056302,21.6629327 C13.5362969,21.3081714 12.4408698,21.3081714 11.7715365,21.6629327 C12.1745916,18.8673843 12.5776466,16.0718359 12.9807017,13.276532 C10.3072485,17.1534789 7.63452286,21.0304258 4.96106967,24.9073726 C4.93487836,24.8870796 4.8994716,24.8557843 4.8652774,24.8107974 C4.78064068,24.6995524 4.76463488,24.5834176 4.75153923,24.4809745 C4.74183875,24.4024918 4.73577594,24.2800001 4.76803005,24.1320811 L5.91753732,17.3747463 C5.87582524,16.9583724 5.83411316,16.542243 5.79240109,16.1258692 C8.1852678,15.1694073 10.5786195,14.2131899 12.9717288,13.257217 C8.64773834,12.0093178 4.32399043,10.7616632 -1.79870008e-13,9.51376404 C0.00994299538,9.48051281 0.0278888895,9.4333254 0.0606280206,9.38344855 C0.14793237,9.25117711 0.27719131,9.19909982 0.376378752,9.15875825 C0.442827062,9.13186387 0.543227064,9.09959062 0.67200098,9.08883287 C2.91499523,8.76023246 5.15823199,8.43163206 7.40146875,8.10303166 C7.78124267,7.93433056 8.16125911,7.76562946 8.54103303,7.59717285 C10.025207,9.47782337 11.5091384,11.3584739 12.9935549,13.2388799 C12.9918573,8.82600144 12.9901597,4.41287847 12.9887046,-4.4408921e-15"/>
        </g>
        <g transform="translate(118)">
          <mask id="badge005-j" fill="#fff">
            <use xlink:href="#badge005-i"/>
          </mask>
          <path fill="#F8CF20" d="M12.391924,0.5127677 C12.726336,-0.170922567 13.273754,-0.170922567 13.6081661,0.5127677 L16.6154513,6.66157867 C16.9498634,7.34502441 17.835086,7.99423673 18.5829089,8.10378367 L25.3074992,9.08995064 C26.0550797,9.19949758 26.2242244,9.72473603 25.6831069,10.2568212 L20.8174115,15.0428976 C20.2760517,15.5752272 19.9380047,16.6254596 20.0657114,17.3768831 L21.2143441,24.1350489 C21.342293,24.8864724 20.8993182,25.2109563 20.2307364,24.8561514 L14.2159237,21.6655968 C13.5473419,21.3107919 12.4527482,21.3107919 11.7839241,21.6655968 L5.76935365,24.8561514 C5.10052954,25.2109563 4.65803938,24.8864724 4.78550369,24.1350489 L5.93437873,17.3768831 C6.06208536,16.6254596 5.72379606,15.5752272 5.18267859,15.0428976 L0.316983172,10.2568212 C-0.224376634,9.72473603 -0.0549896578,9.19949758 0.692833244,9.08995064 L7.41718117,8.10378367 C8.16500407,7.99423673 9.05022671,7.34502441 9.38463877,6.66157867 L12.391924,0.5127677 Z" mask="url(#badge005-j)"/>
          <path fill="#231F20" fill-opacity=".1" d="M12.9887046,-4.4408921e-15 C13.0304167,0.000244494347 13.0929848,0.00562336999 13.1625858,0.0320287595 C13.2746264,0.0745707759 13.3401046,0.147185597 13.4118882,0.22835772 C13.4647558,0.288014341 13.5362969,0.381411182 13.5971674,0.512704646 C14.6004399,2.56205627 15.6034699,4.61140788 16.6067424,6.6607595 C16.7039897,6.85928891 16.9026071,7.14265786 17.2139926,7.41918097 C17.3696854,7.55756477 17.51204,7.65242858 17.6044371,7.70939576 C16.0739433,9.55777302 14.5432071,11.4061503 13.0127133,13.2545276 C17.3340361,12.0076064 21.6556014,10.7606852 25.9771667,9.51376404 C25.9890498,9.55263864 26.002873,9.61229526 25.9994778,9.68491008 C25.9955976,9.7665712 25.9718315,9.82427186 25.9473377,9.88466197 C25.901503,9.99590689 25.8440276,10.0709667 25.8083783,10.1169316 C25.761331,10.1775662 25.7157387,10.2235311 25.681302,10.2555599 C24.0581686,11.8508855 22.4347927,13.4459666 20.8119019,15.0412922 C20.602614,15.4026549 20.3938111,15.764262 20.1847656,16.1258692 C17.7923839,15.1760086 15.3997597,14.2263926 13.007378,13.276532 C15.6769511,17.1534789 18.3465241,21.0304258 21.0160971,24.9073726 C20.9877231,24.9271767 20.9462536,24.9526041 20.8914458,24.9719191 C20.7495763,25.0220405 20.6237125,24.9941681 20.5237975,24.9719191 C20.4505589,24.9557825 20.343126,24.9232648 20.2247801,24.8530949 C18.2182352,23.789789 16.2119327,22.7262386 14.2056302,21.6629327 C13.5362969,21.3081714 12.4408698,21.3081714 11.7715365,21.6629327 C12.1745916,18.8673843 12.5776466,16.0718359 12.9807017,13.276532 C10.3072485,17.1534789 7.63452286,21.0304258 4.96106967,24.9073726 C4.93487836,24.8870796 4.8994716,24.8557843 4.8652774,24.8107974 C4.78064068,24.6995524 4.76463488,24.5834176 4.75153923,24.4809745 C4.74183875,24.4024918 4.73577594,24.2800001 4.76803005,24.1320811 L5.91753732,17.3747463 C5.87582524,16.9583724 5.83411316,16.542243 5.79240109,16.1258692 C8.1852678,15.1694073 10.5786195,14.2131899 12.9717288,13.257217 C8.64773834,12.0093178 4.32399043,10.7616632 -1.79866538e-13,9.51376404 C0.00994299538,9.48051281 0.0278888895,9.4333254 0.0606280206,9.38344855 C0.14793237,9.25117711 0.27719131,9.19909982 0.376378752,9.15875825 C0.442827062,9.13186387 0.543227064,9.09959062 0.67200098,9.08883287 C2.91499523,8.76023246 5.15823199,8.43163206 7.40146875,8.10303166 C7.78124267,7.93433056 8.16125911,7.76562946 8.54103303,7.59717285 C10.025207,9.47782337 11.5091384,11.3584739 12.9935549,13.2388799 C12.9918573,8.82600144 12.9901597,4.41287847 12.9887046,-4.4408921e-15"/>
        </g>
        <g transform="translate(89 13)">
          <mask id="badge005-l" fill="#fff">
            <use xlink:href="#badge005-k"/>
          </mask>
          <path fill="#F8CF20" d="M12.391924,0.5127677 C12.726336,-0.170922567 13.273754,-0.170922567 13.6081661,0.5127677 L16.6154513,6.66157867 C16.9498634,7.34502441 17.835086,7.99423673 18.5829089,8.10378367 L25.3074992,9.08995064 C26.0550797,9.19949758 26.2242244,9.72473603 25.6831069,10.2568212 L20.8174115,15.0428976 C20.2760517,15.5752272 19.9380047,16.6254596 20.0657114,17.3768831 L21.2143441,24.1350489 C21.342293,24.8864724 20.8993182,25.2109563 20.2307364,24.8561514 L14.2159237,21.6655968 C13.5473419,21.3107919 12.4527482,21.3107919 11.7839241,21.6655968 L5.76935365,24.8561514 C5.10052954,25.2109563 4.65803938,24.8864724 4.78550369,24.1350489 L5.93437873,17.3768831 C6.06208536,16.6254596 5.72379606,15.5752272 5.18267859,15.0428976 L0.316983172,10.2568212 C-0.224376634,9.72473603 -0.0549896578,9.19949758 0.692833244,9.08995064 L7.41718117,8.10378367 C8.16500407,7.99423673 9.05022671,7.34502441 9.38463877,6.66157867 L12.391924,0.5127677 Z" mask="url(#badge005-l)"/>
          <path fill="#231F20" fill-opacity=".1" d="M12.9887046,-4.4408921e-15 C13.0304167,0.000244494347 13.0929848,0.00562336999 13.1625858,0.0320287595 C13.2746264,0.0745707759 13.3401046,0.147185597 13.4118882,0.22835772 C13.4647558,0.288014341 13.5362969,0.381411182 13.5971674,0.512704646 C14.6004399,2.56205627 15.6034699,4.61140788 16.6067424,6.6607595 C16.7039897,6.85928891 16.9026071,7.14265786 17.2139926,7.41918097 C17.3696854,7.55756477 17.51204,7.65242858 17.6044371,7.70939576 C16.0739433,9.55777302 14.5432071,11.4061503 13.0127133,13.2545276 C17.3340361,12.0076064 21.6556014,10.7606852 25.9771667,9.51376404 C25.9890498,9.55263864 26.002873,9.61229526 25.9994778,9.68491008 C25.9955976,9.7665712 25.9718315,9.82427186 25.9473377,9.88466197 C25.901503,9.99590689 25.8440276,10.0709667 25.8083783,10.1169316 C25.761331,10.1775662 25.7157387,10.2235311 25.681302,10.2555599 C24.0581686,11.8508855 22.4347927,13.4459666 20.8119019,15.0412922 C20.602614,15.4026549 20.3938111,15.764262 20.1847656,16.1258692 C17.7923839,15.1760086 15.3997597,14.2263926 13.007378,13.276532 C15.6769511,17.1534789 18.3465241,21.0304258 21.0160971,24.9073726 C20.9877231,24.9271767 20.9462536,24.9526041 20.8914458,24.9719191 C20.7495763,25.0220405 20.6237125,24.9941681 20.5237975,24.9719191 C20.4505589,24.9557825 20.343126,24.9232648 20.2247801,24.8530949 C18.2182352,23.789789 16.2119327,22.7262386 14.2056302,21.6629327 C13.5362969,21.3081714 12.4408698,21.3081714 11.7715365,21.6629327 C12.1745916,18.8673843 12.5776466,16.0718359 12.9807017,13.276532 C10.3072485,17.1534789 7.63452286,21.0304258 4.96106967,24.9073726 C4.93487836,24.8870796 4.8994716,24.8557843 4.8652774,24.8107974 C4.78064068,24.6995524 4.76463488,24.5834176 4.75153923,24.4809745 C4.74183875,24.4024918 4.73577594,24.2800001 4.76803005,24.1320811 L5.91753732,17.3747463 C5.87582524,16.9583724 5.83411316,16.542243 5.79240109,16.1258692 C8.1852678,15.1694073 10.5786195,14.2131899 12.9717288,13.257217 C8.64773834,12.0093178 4.32399043,10.7616632 -1.79866538e-13,9.51376404 C0.00994299538,9.48051281 0.0278888895,9.4333254 0.0606280206,9.38344855 C0.14793237,9.25117711 0.27719131,9.19909982 0.376378752,9.15875825 C0.442827062,9.13186387 0.543227064,9.09959062 0.67200098,9.08883287 C2.91499523,8.76023246 5.15823199,8.43163206 7.40146875,8.10303166 C7.78124267,7.93433056 8.16125911,7.76562946 8.54103303,7.59717285 C10.025207,9.47782337 11.5091384,11.3584739 12.9935549,13.2388799 C12.9918573,8.82600144 12.9901597,4.41287847 12.9887046,-4.4408921e-15"/>
        </g>
      </g>
    </g>
  </g>
</svg>
